<?xml version="1.0" encoding="utf-8"?>
<!-- Generator: Adobe Illustrator 16.0.0, SVG Export Plug-In . SVG Version: 6.00 Build 0)  -->
<!DOCTYPE svg PUBLIC "-//W3C//DTD SVG 1.1//EN" "http://www.w3.org/Graphics/SVG/1.1/DTD/svg11.dtd">
<svg version="1.1" id="Layer_1" xmlns="http://www.w3.org/2000/svg" xmlns:xlink="http://www.w3.org/1999/xlink" x="0px" y="0px"
	 width="3000px" height="3000px" viewBox="0 0 3000 3000" enable-background="new 0 0 3000 3000" xml:space="preserve">
<g>
	<path fill="#1B1918" d="M578.907,2138.358c22.246-16.86,54.328-11.24,80.789-8.898c16.393,1.404,24.12,11.239,28.57,23.651
		l125.048,309.578h-97.416c-5.854-22.716-12.411-49.88-20.607-72.126c-41.683,0.702-83.366,0.234-125.049,0l-23.651,72.126h-92.733
		C497.179,2355.437,536.287,2245.844,578.907,2138.358z M594.127,2329.209c24.354-0.233,48.708,0,73.062,0
		c-5.151-39.575-22.247-78.213-36.297-115.915C616.842,2250.762,597.406,2289.4,594.127,2329.209z M2354.178,2164.819
		c-0.469-21.777,22.48-35.595,42.152-34.892l437.67,0.469c30.207,10.303,48.473,41.917,56.67,71.423l-149.404-0.469l-0.467,261.338
		h-82.664l-2.342-266.256c-71.891,0.703-143.783,0.469-215.674,0.469c-12.879,5.62-14.988,71.657,14.52,73.765l83.6-1.404v56.904
		c-25.057-2.343-50.113-1.874-75.17-1.641c-14.52-1.17-27.164,12.646-26.461,26.697l0.701,111.232h-82.662
		C2355.115,2364.336,2353.475,2263.173,2354.178,2164.819z M2041.79,2130.864c43.556-2.575,87.347-0.468,130.903-1.17
		c23.65,0.468,49.645-3.981,70.721,9.835c33.252,20.841,50.113,61.587,48.941,99.992c-0.703,44.259,0.938,88.518-0.936,132.542
		c-2.578,44.728-39.576,89.221-85.709,90.626c-56.67,3.044-113.574-0.938-170.244-0.47c-48.24-1.873-69.315-57.138-73.999-98.118
		c0.469-49.879-1.873-99.758,0-149.638C1963.341,2171.845,1999.403,2135.079,2041.79,2130.864L2041.79,2130.864z M2076.213,2198.307
		c-14.518,6.322-28.336,19.905-27.633,36.999c-1.405,37.468-3.044,74.702-2.576,112.169c-0.702,23.185,18.734,48.709,43.557,47.069
		c26.229-0.234,52.689,1.873,78.684-1.171c17.563-2.107,36.297-14.05,37.701-33.253c2.811-40.043,0.469-80.321,0.936-120.364
		c1.172-23.652-19.201-43.558-42.619-42.62C2134.99,2197.838,2105.25,2195.028,2076.213,2198.307L2076.213,2198.307z
		 M1694.51,2131.801c27.632-4.917,56.435,0.469,84.536-3.278c1.404,78.448,0,157.131,0.703,235.813
		c0,16.158,16.158,30.208,32.081,27.398c33.019-1.405,66.271,0.937,99.29-2.342c11.006,26.695,18.968,42.151,42.15,73.296h-233.704
		c-17.564-0.233-25.76-21.075-24.121-36.296C1695.212,2328.273,1694.04,2230.154,1694.51,2131.801z M1346.997,2177.231
		c-1.172-22.013,16.392-44.259,38.404-47.304l244.946-1.639l0.233,69.081c-62.993-0.702-126.22-4.684-189.447-1.64
		c-18.968,19.904-18.499,70.954,18.5,67.208l152.916-0.702v64.632h-154.788c-35.361-0.469-42.152,48.474-14.285,63.227
		l188.977-1.404c-0.702,25.524,1.171,48.707,0.702,74.467l-247.755-1.873c-19.202,0.702-39.576-14.051-38.404-34.658
		C1346.762,2343.261,1346.997,2260.362,1346.997,2177.231z M855.231,2173.016c0.468-55.266,88.752-55.733,100.929-30.677
		c35.126,54.563,70.955,109.125,106.315,163.453c5.386,7.963,14.987,0.702,18.266-5.619c32.316-51.987,64.165-104.208,96.948-155.96
		c10.772-18.5,108.892-37.702,105.847,33.019l-1.405,285.224h-83.131l-2.342-218.25l-126.922,222.23L943.281,2252.4l-1.171,210.288
		h-88.284C854.997,2366.911,852.889,2268.793,855.231,2173.016L855.231,2173.016z M195.33,2130.864
		c73.296-2.81,146.827,1.874,219.889-2.575c0.234,24.354,0.937,48.474-0.233,72.827c-46.367-2.575-205.605-17.094-214.738,27.165
		c-4.917,23.885-8.43,123.175,5.854,141.44c18.5,23.887,125.283,35.595,125.517,0c1.171-27.866,7.259-57.606-12.411-81.023
		c34.189-1.405,68.145-0.469,102.334-1.171c4.918,40.512,0.936,81.492,2.107,122.238c1.171,23.418-14.987,55.732-41.683,52.924
		H207.741c-26.696,0.936-52.689-13.114-70.486-32.316c-22.949-27.633-28.569-64.867-27.867-99.524
		c1.171-40.043-0.703-80.087,0.937-119.896C112.9,2167.162,153.178,2133.44,195.33,2130.864z M1256.605,534.502
		c247.288-1.639,495.043-2.575,742.096,10.07c74,4.449,148.701,12.645,219.188,37c73.764,28.101,139.334,79.854,180.08,147.997
		c37.936,63.695,62.992,135.119,73.295,208.649c12.178,75.404,8.197,151.979,8.9,228.086c0.701,106.314,1.404,212.863,1.404,319.178
		c-3.748,124.346-23.652,256.419-98.822,359.222c-36.531,46.835-85.707,84.771-140.27,108.422
		c-26.695,13.817-53.393-5.854-70.955-24.822c-3.746-11.24,9.367-18.733,15.689-26.228
		c64.398-57.372,105.848-137.928,122.006-221.996c15.221-81.961,17.797-165.327,18.5-248.458
		c-2.811-110.998-5.152-222.464-20.609-332.527c-7.961-58.309-24.822-116.852-59.479-164.858
		c-33.955-43.322-78.449-81.258-132.543-95.543c-39.107-11.475-80.088-7.025-120.132-9.835
		c-285.926-7.962-572.086-14.519-858.246-8.196c-87.582,6.557-177.036-10.538-262.744,12.177
		c-78.448,18.5-126.22,99.524-133.947,175.396c-7.963,111.7-3.982,223.87-6.558,336.039c0,74.233,10.772,154.789,62.993,211.927
		c30.208,42.386,81.258,64.866,132.542,65.334c276.091,14.051,552.884,10.069,829.444,12.411
		c37.701-1.873,76.809,4.449,113.574-5.854c42.151-17.563,64.866-65.569,64.631-109.594c0.469-42.853,3.748-86.878-8.664-128.327
		c-7.259-24.354-33.956-36.297-57.841-34.892c-281.711,5.62-563.656,8.664-845.601,13.348
		c-49.177-2.108-101.397,19.203-125.049,64.397c-35.126-4.214-71.188-6.322-105.145-16.158c-5.62-97.182-8.195-194.598-5.151-291.78
		c4.449-83.834,81.025-153.15,164.39-152.682c329.015-8.898,658.262-12.88,987.277-3.512c87.112,5.854,182.89,25.759,242.136,95.542
		c45.898,49.411,71.893,114.042,79.619,180.548c11.709,97.651,6.322,196.003,7.26,294.122
		c-2.811,66.505-3.279,134.884-28.102,197.643c-38.404,109.827-140.971,189.213-253.844,209.819
		c-52.455,10.069-105.848,8.664-159.004,10.772c-381.47,9.836-763.641,10.069-1144.173-17.329
		c-75.873-1.873-141.442-51.284-177.036-116.15c-44.961-81.258-53.157-176.801-57.139-267.895
		c-0.468-211.458-5.854-422.917-6.557-634.376c3.045-76.34,12.646-156.663,56.436-221.529
		c45.664-73.531,126.454-117.087,209.118-135.586C890.591,539.42,1074.184,540.591,1256.605,534.502L1256.605,534.502z"/>
</g>
</svg>
